<?xml version="1.0" ?><!DOCTYPE svg  PUBLIC '-//W3C//DTD SVG 1.1//EN'  'http://www.w3.org/Graphics/SVG/1.1/DTD/svg11.dtd'><svg height="100%" style="fill-rule:evenodd;clip-rule:evenodd;stroke-linejoin:round;stroke-miterlimit:2;" version="1.1" viewBox="0 0 32 32" width="100%" xml:space="preserve" xmlns="http://www.w3.org/2000/svg" xmlns:serif="http://www.serif.com/" xmlns:xlink="http://www.w3.org/1999/xlink"><path d="M12.617,22.125c-2.156,-1.194 -3.617,-3.492 -3.617,-6.128c-0,-3.864 3.137,-7 7,-7c3.863,-0 7,3.136 7,7c-0,2.636 -1.461,4.934 -3.617,6.128c-0.483,0.268 -0.658,0.877 -0.391,1.359c0.268,0.483 0.877,0.658 1.36,0.391c2.771,-1.535 4.648,-4.489 4.648,-7.878c-0,-4.968 -4.033,-9 -9,-9c-4.967,-0 -9,4.032 -9,9c-0,3.389 1.877,6.343 4.648,7.878c0.483,0.267 1.092,0.092 1.36,-0.391c0.267,-0.482 0.092,-1.091 -0.391,-1.359Z"/><path d="M18.247,18c-0.55,0.612 -1.346,0.997 -2.232,0.997c-0.893,-0 -1.695,-0.392 -2.245,-1.012c-0.366,-0.413 -0.999,-0.451 -1.412,-0.085c-0.413,0.367 -0.451,0.999 -0.085,1.412c0.917,1.033 2.254,1.685 3.742,1.685c1.476,-0 2.804,-0.641 3.719,-1.66c0.369,-0.41 0.335,-1.043 -0.075,-1.412c-0.411,-0.369 -1.043,-0.335 -1.412,0.075Z"/><path d="M17,26.931l-0,-2.926c0,-0.552 -0.448,-1 -1,-1c-0.552,0 -1,0.448 -1,1l-0,3.977c0,0.552 0.448,0.994 1,0.994c0.04,0 0.078,0 0.117,-0.001c5.999,-0.053 11.031,-4.171 12.47,-9.724c0.028,-0.107 0.054,-0.215 0.079,-0.323c1.324,-0.309 2.312,-1.498 2.312,-2.916c0,-1.415 -0.984,-2.602 -2.304,-2.913c-1.32,-5.77 -6.496,-10.082 -12.674,-10.082c-6.175,0 -11.349,4.308 -12.672,10.074c-1.337,0.299 -2.338,1.494 -2.338,2.921c0,1.653 1.342,2.994 2.994,2.994c1.653,0 2.994,-1.341 2.994,-2.994c0,-1.17 -0.673,-2.184 -1.652,-2.676c1.192,-4.777 5.522,-8.319 10.674,-8.319c5.147,0 9.473,3.536 10.671,8.305c-0.995,0.487 -1.681,1.509 -1.681,2.69c0,1.179 0.683,2.199 1.674,2.688l-0.013,0.049c-1.144,4.418 -4.978,7.76 -9.651,8.182Zm-13.016,-11.912c0.549,-0 0.994,0.445 0.994,0.993c0,0.549 -0.445,0.994 -0.994,0.994c-0.548,0 -0.994,-0.445 -0.994,-0.994c0,-0.548 0.446,-0.993 0.994,-0.993Zm24,-0c0.549,-0 0.994,0.445 0.994,0.993c0,0.549 -0.445,0.994 -0.994,0.994c-0.548,0 -0.994,-0.445 -0.994,-0.994c0,-0.548 0.446,-0.993 0.994,-0.993Z"/><g id="Icon"/></svg>