<svg xmlns="http://www.w3.org/2000/svg" width="160" height="160" viewBox="0 0 160 160">
  <g id="Group_420" data-name="Group 420" transform="translate(-115 -148)">
    <rect id="Rectangle_62" data-name="Rectangle 62" width="120" height="120" rx="60" transform="translate(135 168)" fill="#f0f8ff" opacity="0.1"/>
    <rect id="Rectangle_63" data-name="Rectangle 63" width="160" height="160" rx="80" transform="translate(115 148)" fill="#f0f8ff" opacity="0.1"/>
    <rect id="Rectangle_61" data-name="Rectangle 61" width="80" height="80" rx="40" transform="translate(155 188)" fill="#00b139"/>
    <path id="Path_209" data-name="Path 209" d="M.646,13.159A38.656,38.656,0,0,1-14.8,10.042,40.384,40.384,0,0,1-27.563,1.388a41.051,41.051,0,0,1-8.654-12.778,38.45,38.45,0,0,1-3.136-15.45,38.45,38.45,0,0,1,3.136-15.45A40.817,40.817,0,0,1-27.563-55.05,40.881,40.881,0,0,1-14.823-63.7,38.313,38.313,0,0,1,.607-66.841,38.546,38.546,0,0,1,16.1-63.7,41.051,41.051,0,0,1,28.875-55.05a40.655,40.655,0,0,1,8.674,12.759,38.45,38.45,0,0,1,3.136,15.45,38.45,38.45,0,0,1-3.136,15.45A40.887,40.887,0,0,1,28.875,1.388,40.614,40.614,0,0,1,16.1,10.042,38.656,38.656,0,0,1,.646,13.159Zm-4.3-20.91a4.051,4.051,0,0,0,1.994-.5A4.8,4.8,0,0,0-.051-9.764L18.071-38.032a10.019,10.019,0,0,0,.7-1.336,3.46,3.46,0,0,0,.31-1.375,2.993,2.993,0,0,0-1.142-2.439,3.974,3.974,0,0,0-2.575-.929A3.63,3.63,0,0,0,12.224-42.1L-3.807-16.463l-7.435-9.448a5.064,5.064,0,0,0-1.51-1.355,3.52,3.52,0,0,0-1.665-.387,3.338,3.338,0,0,0-2.5,1.065,3.529,3.529,0,0,0-1.026,2.536,3.921,3.921,0,0,0,.271,1.433,5.538,5.538,0,0,0,.774,1.355L-7.408-9.726a5.751,5.751,0,0,0,1.742,1.51A4.288,4.288,0,0,0-3.652-7.751Z" transform="translate(194.334 254.841)" fill="#fff"/>
  </g>
</svg>
