<svg xmlns="http://www.w3.org/2000/svg" width="30" height="30" viewBox="0 0 30 30">
  <g id="Group_246" data-name="Group 246" transform="translate(-342 -783)">
    <rect id="Rectangle_47" data-name="Rectangle 47" width="30" height="30" transform="translate(342 783)" fill="none"/>
    <path id="Path_12" data-name="Path 12" d="M12.445,3.4a1.043,1.043,0,0,1-.934-.444,4.083,4.083,0,0,1-.5-1.113L9.659-2.629a1.982,1.982,0,0,1-.094-.779,1.131,1.131,0,0,1,.322-.62l9.04-9.8a.262.262,0,0,0,.084-.191.227.227,0,0,0-.073-.17.262.262,0,0,0-.174-.072.253.253,0,0,0-.188.08L8.792-5.113a1.147,1.147,0,0,1-.635.327A1.975,1.975,0,0,1,7.389-4.9L2.834-6.289A3.83,3.83,0,0,1,1.766-6.78,1.045,1.045,0,0,1,1.345-7.7a1.151,1.151,0,0,1,.381-.867,2.814,2.814,0,0,1,.951-.576L17.9-14.975a4.641,4.641,0,0,1,.558-.173,2.1,2.1,0,0,1,.48-.062,1.008,1.008,0,0,1,.745.273,1,1,0,0,1,.273.744,2.047,2.047,0,0,1-.063.482,4.944,4.944,0,0,1-.174.556L13.919,2a3.083,3.083,0,0,1-.607,1.016A1.151,1.151,0,0,1,12.445,3.4Z" transform="translate(346 805)" fill="#0061af"/>
  </g>
</svg>
