<svg xmlns="http://www.w3.org/2000/svg" width="49.102" height="42.051" viewBox="0 0 49.102 42.051">
  <path id="Path_200" data-name="Path 200" d="M3.5-11.27a10.19,10.19,0,0,1,.869-4.209,8.615,8.615,0,0,1,2.48-3.242,7.959,7.959,0,0,1,3.818-1.65,7.468,7.468,0,0,1,.986-3.691A8.5,8.5,0,0,1,14.1-26.748a8.706,8.706,0,0,1,3.271-1.436,7.247,7.247,0,0,1,3.428.078,16.53,16.53,0,0,1,2.822-3.125,13.2,13.2,0,0,1,3.789-2.275,12.89,12.89,0,0,1,4.795-.85,14.008,14.008,0,0,1,5.6,1.113,13.841,13.841,0,0,1,4.531,3.125,14.222,14.222,0,0,1,3.018,4.756,16.337,16.337,0,0,1,1.074,6.006,9.91,9.91,0,0,1,4.521,3.623,9.25,9.25,0,0,1,1.65,5.3,7.533,7.533,0,0,1-1.182,4.15,8.26,8.26,0,0,1-3.291,2.92A10.708,10.708,0,0,1,43.2-2.285H29.727V6.191a1.429,1.429,0,0,1-.459,1.055,1.5,1.5,0,0,1-1.084.449,1.521,1.521,0,0,1-1.1-.449,1.429,1.429,0,0,1-.459-1.055V-2.285H14.1A12.178,12.178,0,0,1,8.516-3.5a9.34,9.34,0,0,1-3.7-3.242A8.146,8.146,0,0,1,3.5-11.27ZM26.621-3.086a1.473,1.473,0,0,0,.459,1.094,1.521,1.521,0,0,0,1.1.449,1.5,1.5,0,0,0,1.084-.449,1.473,1.473,0,0,0,.459-1.094V-13.145l-.117-2.91,1,1.055,3.281,3.477a1.338,1.338,0,0,0,1.055.469,1.416,1.416,0,0,0,1.016-.391,1.293,1.293,0,0,0,.41-.977,1.437,1.437,0,0,0-.469-1.035l-6.6-6.367a1.925,1.925,0,0,0-.557-.41,1.355,1.355,0,0,0-.557-.117,1.4,1.4,0,0,0-.576.117,1.925,1.925,0,0,0-.557.41l-6.6,6.367a1.437,1.437,0,0,0-.469,1.035,1.308,1.308,0,0,0,.4.977,1.382,1.382,0,0,0,1.006.391,1.359,1.359,0,0,0,1.074-.469L25.742-15l1-1.055-.117,2.91Z" transform="translate(-3.496 34.355)" fill="#1d1f29" opacity="0.1"/>
</svg>
