<svg xmlns="http://www.w3.org/2000/svg" width="14.213" height="14.235" viewBox="0 0 14.213 14.235">
  <path id="Path_11" data-name="Path 11" d="M1.625-3.3l.044-4.577A.577.577,0,0,1,1.841-8.3a.541.541,0,0,1,.4-.175.553.553,0,0,1,.394.175.537.537,0,0,1,.165.394l-.032,1.9L2.66-4.45l.99-1.079,5.992-5.992a.571.571,0,0,1,.406-.181.52.52,0,0,1,.4.181.539.539,0,0,1,.178.4.539.539,0,0,1-.178.4l-5.992,6-1.079.99L4.932-3.84l1.9-.032a.545.545,0,0,1,.4.165.553.553,0,0,1,.175.394.541.541,0,0,1-.175.4.626.626,0,0,1-.432.165L2.228-2.7a.575.575,0,0,1-.435-.165A.567.567,0,0,1,1.625-3.3ZM15.837-5.865l-.044,4.57a.577.577,0,0,1-.171.425.541.541,0,0,1-.4.175.553.553,0,0,1-.394-.175.524.524,0,0,1-.165-.394l.032-1.9L14.8-4.723l-.99,1.085-6,5.992a.536.536,0,0,1-.4.178.556.556,0,0,1-.4-.178.546.546,0,0,1,0-.806l5.992-5.992,1.079-.99-1.555.108-1.9.032a.53.53,0,0,1-.387-.165.532.532,0,0,1-.178-.394.553.553,0,0,1,.178-.4.582.582,0,0,1,.19-.124.59.59,0,0,1,.229-.048l4.577-.044a.555.555,0,0,1,.435.159A.575.575,0,0,1,15.837-5.865Z" transform="translate(-1.625 11.702)" fill="#0061af"/>
</svg>
