<?xml version="1.0" ?><svg height="512" viewBox="0 0 512 512" width="512" xmlns="http://www.w3.org/2000/svg"><title/><rect height="80" width="80" x="336" y="336"/><rect height="64" width="64" x="272" y="272"/><rect height="64" width="64" x="416" y="416"/><rect height="48" width="48" x="432" y="272"/><rect height="48" width="48" x="272" y="432"/><rect height="80" width="80" x="336" y="96"/><path d="M480,240H272V32H480ZM316,196H436V76H316Z"/><rect height="80" width="80" x="96" y="96"/><path d="M240,240H32V32H240ZM76,196H196V76H76Z"/><rect height="80" width="80" x="96" y="336"/><path d="M240,480H32V272H240ZM76,436H196V316H76Z"/></svg>